<svg xmlns="http://www.w3.org/2000/svg" aria-hidden="true" style="position:absolute;width:0;height:0;overflow:hidden">
  <defs>
   




    <symbol id="icon-bed" viewBox="0 0 32 32">
      <path stroke-linecap="round" stroke-linejoin="round" stroke-width="2.24" d="M3 26v-7a4.012 4.012 0 0 1 4-4h18a4.012 4.012 0 0 1 4 4v7m-5-11H6V8.5A2.504 2.504 0 0 1 8.5 6h15A2.504 2.504 0 0 1 26 8.5V15h-2z"/>
      <path stroke-linecap="round" stroke-linejoin="round" stroke-width="2.24" d="M3 26v-.5A1.504 1.504 0 0 1 4.5 24h23a1.504 1.504 0 0 1 1.5 1.5v.5M7 15v-1a2.002 2.002 0 0 1 2-2h5a2.002 2.002 0 0 1 2 2m0 0v1m0-1a2.008 2.008 0 0 1 2-2h5a2.002 2.002 0 0 1 2 2v1"/>
    </symbol>
    <symbol id="icon-calendar" viewBox="0 0 32 32">
      <path stroke-linecap="round" stroke-linejoin="round" stroke-width="2.4" d="M25.333 5.333H6.666A2.667 2.667 0 0 0 3.999 8v18.667a2.667 2.667 0 0 0 2.667 2.667h18.667A2.667 2.667 0 0 0 28 26.667V8a2.667 2.667 0 0 0-2.667-2.667zM21.333 2.667V8M10.667 2.667V8M4 13.333h24"/>
    </symbol>
    <symbol id="icon-camper1" viewBox="0 0 46 32">
      <path d="M2.608 1.8h12.409c.105 0 .203-.04.278-.112L16.487.525a1.845 1.845 0 0 1 1.297-.524h18.817c.876 0 1.69.425 2.176 1.136l2.255 3.3c.32.468.349 1.067.077 1.564s-.8.805-1.377.805h-9.698v.956h4.967c1.317 0 2.501.763 3.018 1.945l2.908 6.65 2.548.994c1.36.531 2.24 1.797 2.24 3.227v6.158c0 .918-.766 1.666-1.708 1.666h-2.964c-.345 2.039-2.164 3.599-4.35 3.599s-4.005-1.561-4.35-3.599H16.14c-.345 2.039-2.164 3.599-4.35 3.599s-4.005-1.561-4.35-3.599H1.519c-.837 0-1.518-.664-1.518-1.481V4.345c0-1.403 1.17-2.544 2.608-2.544zm34.084 28.794c1.637 0 2.969-1.299 2.969-2.896s-1.332-2.896-2.969-2.896c-1.637 0-2.969 1.299-2.969 2.896s1.332 2.896 2.969 2.896zm-6.658-3.599h2.307l.02-.105.014-.071c.012-.055.025-.11.039-.164.003-.011.005-.023.009-.034a3.34 3.34 0 0 1 .057-.195l.019-.056a5.274 5.274 0 0 1 .122-.321l.033-.075c.016-.037.032-.072.05-.108l.038-.075.054-.103.041-.074.059-.101.043-.071.066-.101.044-.065.077-.105.04-.055.109-.135.016-.02c.043-.051.087-.1.132-.148l.043-.044.096-.099.056-.053.09-.084.062-.054.09-.077.066-.052.093-.071a1.22 1.22 0 0 1 .069-.05l.097-.068.069-.046c.034-.023.069-.044.104-.065l.068-.041c.038-.023.077-.044.116-.065l.059-.033.168-.084.013-.006c.061-.029.123-.056.186-.082l.061-.024.13-.05.075-.026.12-.039.082-.024c.039-.011.078-.023.118-.033.028-.007.056-.015.085-.021l.118-.026.087-.018c.04-.007.081-.015.122-.021l.086-.014.128-.016.082-.009.143-.011.07-.005a3.893 3.893 0 0 1 .502.005c.048.003.096.006.143.011.028.002.055.006.082.009l.128.016c.029.004.058.008.087.014.041.006.081.014.122.021l.087.018a4.084 4.084 0 0 1 .321.08l.082.024.12.039.075.026.13.05.061.024c.062.026.125.053.186.082l.013.006c.057.027.112.055.168.084l.059.033.116.065.068.041.104.065.069.046c.033.023.065.044.097.068l.069.05.093.071.066.052c.031.025.061.051.09.077l.062.054.09.084.056.053.096.099.043.044c.045.048.089.098.132.148l.016.02c.037.044.073.089.109.135l.04.055.077.105.044.065.066.101.043.071.059.101.041.074.054.103.038.075.05.108c.011.025.023.049.033.075.017.038.032.077.047.116a2.087 2.087 0 0 1 .075.205l.019.056c.02.064.039.129.056.195l.009.034c.014.055.027.109.039.164l.014.071.02.105h2.963a.263.263 0 0 0 .266-.26v-2.946h-1.124v-1.406h1.124v-1.806c0-.851-.523-1.606-1.333-1.922l-2.697-1.052H30.031v9.392zm0-10.798h9.257l-2.598-5.939a1.84 1.84 0 0 0-1.692-1.09h-4.967v7.03zM11.789 30.594c1.637 0 2.969-1.299 2.969-2.896s-1.332-2.896-2.969-2.896c-.051 0-.102.001-.153.004-1.364.067-2.488 1.038-2.756 2.309a2.812 2.812 0 0 0-.061.583c0 1.597 1.332 2.896 2.969 2.896zM1.441 22.383h1.124v1.406H1.441v3.131c0 .041.035.075.077.075h5.92l.02-.104.014-.072c.012-.054.024-.107.038-.16l.009-.038a4.26 4.26 0 0 1 .056-.193l.02-.058.046-.132.028-.072.046-.114a2.049 2.049 0 0 1 .084-.182l.038-.076.054-.102.042-.074.059-.1a2.156 2.156 0 0 1 .11-.171 1.08 1.08 0 0 1 .044-.066l.076-.104.042-.057.106-.132a3.757 3.757 0 0 1 .15-.171l.043-.045c.032-.033.063-.066.096-.098l.056-.053.089-.083.062-.055c.029-.025.059-.051.09-.075l.066-.053.092-.071.069-.05.096-.067.07-.047c.034-.023.069-.044.103-.065l.069-.042c.038-.023.077-.044.116-.065.02-.011.04-.023.061-.033.055-.029.11-.057.167-.083l.014-.007c.061-.029.123-.056.186-.082l.061-.024.13-.05.076-.026c.039-.014.079-.027.119-.039l.082-.024c.039-.011.078-.023.118-.033.028-.007.056-.015.085-.021l.118-.026.087-.018c.04-.007.081-.015.122-.021l.086-.014.128-.016.082-.009.143-.011.07-.005a3.893 3.893 0 0 1 .502.005c.048.003.096.006.143.011.028.002.055.006.082.009l.128.016c.029.004.058.008.086.014.041.006.081.014.122.021l.087.018a4.084 4.084 0 0 1 .321.08l.082.024c.04.012.08.026.119.039l.076.026.13.05.061.024c.062.026.124.053.186.082l.014.007c.056.026.112.054.167.083l.06.033.116.065.069.042c.035.021.069.042.103.065l.07.047c.032.022.065.044.096.067l.069.05.092.071c.023.017.044.035.066.053.031.025.061.05.09.076l.062.054.09.084.056.053.096.098.043.044c.045.048.089.098.132.148l.017.021c.036.044.073.088.107.134l.042.055.077.105.044.066c.023.033.044.066.066.1l.044.071.059.101.041.074.055.103a2.6 2.6 0 0 1 .087.183 2.343 2.343 0 0 1 .08.191l.028.071c.017.045.032.09.047.135l.019.055c.02.064.039.129.057.195l.007.031c.014.056.028.111.04.168l.013.069.021.106h12.453V6.106c0-.388.323-.703.721-.703h10.419c.018 0 .073 0 .107-.062s.004-.106-.006-.12l-2.255-3.3a1.18 1.18 0 0 0-.977-.51H17.784a.397.397 0 0 0-.278.112l-1.192 1.163a1.845 1.845 0 0 1-1.297.524H2.608c-.643 0-1.167.511-1.167 1.138v18.039z"/>
      <path d="M20.116 7.198h4.558c.921 0 1.67.731 1.67 1.629v15.046a.712.712 0 0 1-.721.703h-6.456a.712.712 0 0 1-.721-.703V8.827c-.001-.899.748-1.629 1.669-1.629zm-.229 15.972h5.015v-8.267h-5.015v8.267zm0-9.673h5.015V8.828a.226.226 0 0 0-.229-.223h-4.558c-.126 0-.229.1-.229.223v4.669h.001zM5.536 7.198h8.814c1.019 0 1.848.809 1.848 1.802v4.1c0 .994-.829 1.802-1.848 1.802H5.535c-1.019 0-1.848-.809-1.848-1.802V9c.001-.994.83-1.802 1.848-1.802zM5.129 13.1c0 .218.182.396.406.396h8.814a.402.402 0 0 0 .406-.396V9a.402.402 0 0 0-.406-.396H5.534A.402.402 0 0 0 5.128 9v4.1h.001z"/>
    </symbol>
    <symbol id="icon-camper2" viewBox="0 0 46 32">
      <path d="M2.608 1.8h12.409c.105 0 .203-.04.278-.112L16.487.525a1.845 1.845 0 0 1 1.297-.524h18.817c.876 0 1.69.425 2.176 1.136l2.255 3.3c.32.468.349 1.067.077 1.564s-.8.805-1.377.805h-9.698v.956h4.967c1.317 0 2.501.763 3.018 1.945l2.908 6.65 2.548.994c1.36.531 2.24 1.797 2.24 3.227v6.158c0 .918-.766 1.666-1.708 1.666h-2.964c-.345 2.039-2.164 3.599-4.35 3.599s-4.005-1.561-4.35-3.599H16.14c-.345 2.039-2.164 3.599-4.35 3.599s-4.005-1.561-4.35-3.599H1.519c-.837 0-1.518-.664-1.518-1.481V4.345c0-1.403 1.17-2.544 2.608-2.544zm34.084 28.794c1.637 0 2.969-1.299 2.969-2.896s-1.332-2.896-2.969-2.896c-1.637 0-2.969 1.299-2.969 2.896s1.332 2.896 2.969 2.896zm-6.658-3.599h2.307l.02-.105.014-.071c.012-.055.025-.11.039-.164.003-.011.005-.023.009-.034a3.34 3.34 0 0 1 .057-.195l.019-.056a5.274 5.274 0 0 1 .122-.321l.033-.075c.016-.037.032-.072.05-.108l.038-.075.054-.103.041-.074.059-.101.043-.071.066-.101.044-.065.077-.105.04-.055.109-.135.016-.02c.043-.051.087-.1.132-.148l.043-.044.096-.099.056-.053.09-.084.062-.054.09-.077.066-.052.093-.071a1.22 1.22 0 0 1 .069-.05l.097-.068.069-.046c.034-.023.069-.044.104-.065l.068-.041c.038-.023.077-.044.116-.065l.059-.033.168-.084.013-.006c.061-.029.123-.056.186-.082l.061-.024.13-.05.075-.026.12-.039.082-.024c.039-.011.078-.023.118-.033.028-.007.056-.015.085-.021l.118-.026.087-.018c.04-.007.081-.015.122-.021l.086-.014.128-.016.082-.009.143-.011.07-.005a3.893 3.893 0 0 1 .502.005c.048.003.096.006.143.011.028.002.055.006.082.009l.128.016c.029.004.058.008.087.014.041.006.081.014.122.021l.087.018a4.084 4.084 0 0 1 .321.08l.082.024.12.039.075.026.13.05.061.024c.062.026.125.053.186.082l.013.006c.057.027.112.055.168.084l.059.033.116.065.068.041.104.065.069.046c.033.023.065.044.097.068l.069.05.093.071.066.052c.031.025.061.051.09.077l.062.054.09.084.056.053.096.099.043.044c.045.048.089.098.132.148l.016.02c.037.044.073.089.109.135l.04.055.077.105.044.065.066.101.043.071.059.101.041.074.054.103.038.075.05.108c.011.025.023.049.033.075.017.038.032.077.047.116a2.087 2.087 0 0 1 .075.205l.019.056c.02.064.039.129.056.195l.009.034c.014.055.027.109.039.164l.014.071.02.105h2.963a.263.263 0 0 0 .266-.26v-2.946h-1.124v-1.406h1.124v-1.806c0-.851-.523-1.606-1.333-1.922l-2.697-1.052H30.031v9.392zm0-10.798h9.257l-2.598-5.939a1.84 1.84 0 0 0-1.692-1.09h-4.967v7.03zM11.789 30.594c1.637 0 2.969-1.299 2.969-2.896s-1.332-2.896-2.969-2.896c-.051 0-.102.001-.153.004-1.364.067-2.488 1.038-2.756 2.309a2.812 2.812 0 0 0-.061.583c0 1.597 1.332 2.896 2.969 2.896zM1.441 22.383h1.124v1.406H1.441v3.131c0 .041.035.075.077.075h5.92l.02-.104.014-.072c.012-.054.024-.107.038-.16l.009-.038a4.26 4.26 0 0 1 .056-.193l.02-.058.046-.132.028-.072.046-.114a2.049 2.049 0 0 1 .084-.182l.038-.076.054-.102.042-.074.059-.1a2.156 2.156 0 0 1 .11-.171 1.08 1.08 0 0 1 .044-.066l.076-.104.042-.057.106-.132a3.757 3.757 0 0 1 .15-.171l.043-.045c.032-.033.063-.066.096-.098l.056-.053.089-.083.062-.055c.029-.025.059-.051.09-.075l.066-.053.092-.071.069-.05.096-.067.07-.047c.034-.023.069-.044.103-.065l.069-.042c.038-.023.077-.044.116-.065.02-.011.04-.023.061-.033.055-.029.11-.057.167-.083l.014-.007c.061-.029.123-.056.186-.082l.061-.024.13-.05.076-.026c.039-.014.079-.027.119-.039l.082-.024c.039-.011.078-.023.118-.033.028-.007.056-.015.085-.021l.118-.026.087-.018c.04-.007.081-.015.122-.021l.086-.014.128-.016.082-.009.143-.011.07-.005a3.893 3.893 0 0 1 .502.005c.048.003.096.006.143.011.028.002.055.006.082.009l.128.016c.029.004.058.008.086.014.041.006.081.014.122.021l.087.018a4.084 4.084 0 0 1 .321.08l.082.024c.04.012.08.026.119.039l.076.026.13.05.061.024c.062.026.124.053.186.082l.014.007c.056.026.112.054.167.083l.06.033.116.065.069.042c.035.021.069.042.103.065l.07.047c.032.022.065.044.096.067l.069.05.092.071c.023.017.044.035.066.053.031.025.061.05.09.076l.062.054.09.084.056.053.096.098.043.044c.045.048.089.098.132.148l.017.021c.036.044.073.088.107.134l.042.055.077.105.044.066c.023.033.044.066.066.1l.044.071.059.101.041.074.055.103a2.6 2.6 0 0 1 .087.183 2.343 2.343 0 0 1 .08.191l.028.071c.017.045.032.09.047.135l.019.055c.02.064.039.129.057.195l.007.031c.014.056.028.111.04.168l.013.069.021.106h12.453V6.106c0-.388.323-.703.721-.703h10.419c.018 0 .073 0 .107-.062s.004-.106-.006-.12l-2.255-3.3a1.18 1.18 0 0 0-.977-.51H17.784a.397.397 0 0 0-.278.112l-1.192 1.163a1.845 1.845 0 0 1-1.297.524H2.608c-.643 0-1.167.511-1.167 1.138v18.039z"/>
      <path d="M20.116 7.198h4.558c.921 0 1.67.731 1.67 1.629v15.046a.712.712 0 0 1-.721.703h-6.456a.712.712 0 0 1-.721-.703V8.827c-.001-.899.748-1.629 1.669-1.629zm-.229 15.972h5.015v-8.267h-5.015v8.267zm0-9.673h5.015V8.828a.226.226 0 0 0-.229-.223h-4.558c-.126 0-.229.1-.229.223l.001 4.669z"/>
    </symbol>
    <symbol id="icon-camper3" viewBox="0 0 46 32">
      <path d="M2.608 1.8h12.409c.105 0 .203-.04.278-.112L16.487.525a1.845 1.845 0 0 1 1.297-.524h18.817c.876 0 1.69.425 2.176 1.136l2.255 3.3c.32.468.349 1.067.077 1.564s-.8.805-1.377.805h-9.698v.956h4.967c1.317 0 2.501.763 3.018 1.945l2.908 6.65 2.548.994c1.36.531 2.24 1.797 2.24 3.227v6.158c0 .918-.766 1.666-1.708 1.666h-2.964c-.345 2.039-2.164 3.599-4.35 3.599s-4.005-1.561-4.35-3.599H16.14c-.345 2.039-2.164 3.599-4.35 3.599s-4.005-1.561-4.35-3.599H1.519c-.837 0-1.518-.664-1.518-1.481V4.345c0-1.403 1.17-2.544 2.608-2.544zm34.084 28.794c1.637 0 2.969-1.299 2.969-2.896s-1.332-2.896-2.969-2.896c-1.637 0-2.969 1.299-2.969 2.896s1.332 2.896 2.969 2.896zm-6.658-3.599h2.307l.02-.105.014-.071c.012-.055.025-.11.039-.164.003-.011.005-.023.009-.034a3.34 3.34 0 0 1 .057-.195l.019-.056a5.274 5.274 0 0 1 .122-.321l.033-.075c.016-.037.032-.072.05-.108l.038-.075.054-.103.041-.074.059-.101.043-.071.066-.101.044-.065.077-.105.04-.055.109-.135.016-.02c.043-.051.087-.1.132-.148l.043-.044.096-.099.056-.053.09-.084.062-.054.09-.077.066-.052.093-.071a1.22 1.22 0 0 1 .069-.05l.097-.068.069-.046c.034-.023.069-.044.104-.065l.068-.041c.038-.023.077-.044.116-.065l.059-.033.168-.084.013-.006c.061-.029.123-.056.186-.082l.061-.024.13-.05.075-.026.12-.039.082-.024c.039-.011.078-.023.118-.033.028-.007.056-.015.085-.021l.118-.026.087-.018c.04-.007.081-.015.122-.021l.086-.014.128-.016.082-.009.143-.011.07-.005a3.893 3.893 0 0 1 .502.005c.048.003.096.006.143.011.028.002.055.006.082.009l.128.016c.029.004.058.008.087.014.041.006.081.014.122.021l.087.018a4.084 4.084 0 0 1 .321.08l.082.024.12.039.075.026.13.05.061.024c.062.026.125.053.186.082l.013.006c.057.027.112.055.168.084l.059.033.116.065.068.041.104.065.069.046c.033.023.065.044.097.068l.069.05.093.071.066.052c.031.025.061.051.09.077l.062.054.09.084.056.053.096.099.043.044c.045.048.089.098.132.148l.016.02c.037.044.073.089.109.135l.04.055.077.105.044.065.066.101.043.071.059.101.041.074.054.103.038.075.05.108c.011.025.023.049.033.075.017.038.032.077.047.116a2.087 2.087 0 0 1 .075.205l.019.056c.02.064.039.129.056.195l.009.034c.014.055.027.109.039.164l.014.071.02.105h2.963a.263.263 0 0 0 .266-.26v-2.946h-1.124v-1.406h1.124v-1.806c0-.851-.523-1.606-1.333-1.922l-2.697-1.052H30.031v9.392zm0-10.798h9.257l-2.598-5.939a1.84 1.84 0 0 0-1.692-1.09h-4.967v7.03zM11.789 30.594c1.637 0 2.969-1.299 2.969-2.896s-1.332-2.896-2.969-2.896c-.051 0-.102.001-.153.004-1.364.067-2.488 1.038-2.756 2.309a2.812 2.812 0 0 0-.061.583c0 1.597 1.332 2.896 2.969 2.896zM1.441 22.383h1.124v1.406H1.441v3.131c0 .041.035.075.077.075h5.92l.02-.104.014-.072c.012-.054.024-.107.038-.16l.009-.038a4.26 4.26 0 0 1 .056-.193l.02-.058.046-.132.028-.072.046-.114a2.049 2.049 0 0 1 .084-.182l.038-.076.054-.102.042-.074.059-.1a2.156 2.156 0 0 1 .11-.171 1.08 1.08 0 0 1 .044-.066l.076-.104.042-.057.106-.132a3.757 3.757 0 0 1 .15-.171l.043-.045c.032-.033.063-.066.096-.098l.056-.053.089-.083.062-.055c.029-.025.059-.051.09-.075l.066-.053.092-.071.069-.05.096-.067.07-.047c.034-.023.069-.044.103-.065l.069-.042c.038-.023.077-.044.116-.065.02-.011.04-.023.061-.033.055-.029.11-.057.167-.083l.014-.007c.061-.029.123-.056.186-.082l.061-.024.13-.05.076-.026c.039-.014.079-.027.119-.039l.082-.024c.039-.011.078-.023.118-.033.028-.007.056-.015.085-.021l.118-.026.087-.018c.04-.007.081-.015.122-.021l.086-.014.128-.016.082-.009.143-.011.07-.005a3.893 3.893 0 0 1 .502.005c.048.003.096.006.143.011.028.002.055.006.082.009l.128.016c.029.004.058.008.086.014.041.006.081.014.122.021l.087.018a4.084 4.084 0 0 1 .321.08l.082.024c.04.012.08.026.119.039l.076.026.13.05.061.024c.062.026.124.053.186.082l.014.007c.056.026.112.054.167.083l.06.033.116.065.069.042c.035.021.069.042.103.065l.07.047c.032.022.065.044.096.067l.069.05.092.071c.023.017.044.035.066.053.031.025.061.05.09.076l.062.054.09.084.056.053.096.098.043.044c.045.048.089.098.132.148l.017.021c.036.044.073.088.107.134l.042.055.077.105.044.066c.023.033.044.066.066.1l.044.071.059.101.041.074.055.103a2.6 2.6 0 0 1 .087.183 2.343 2.343 0 0 1 .08.191l.028.071c.017.045.032.09.047.135l.019.055c.02.064.039.129.057.195l.007.031c.014.056.028.111.04.168l.013.069.021.106h12.453V6.106c0-.388.323-.703.721-.703h10.419c.018 0 .073 0 .107-.062s.004-.106-.006-.12l-2.255-3.3a1.18 1.18 0 0 0-.977-.51H17.784a.397.397 0 0 0-.278.112l-1.192 1.163a1.845 1.845 0 0 1-1.297.524H2.608c-.643 0-1.167.511-1.167 1.138v18.039z"/>
      <path d="M5.536 7.198h8.814c1.019 0 1.848.809 1.848 1.802v4.1c0 .994-.829 1.802-1.848 1.802H5.535c-1.019 0-1.848-.809-1.848-1.802V9c.001-.994.83-1.802 1.848-1.802zM5.129 13.1c0 .218.182.396.406.396h8.814a.402.402 0 0 0 .406-.396V9a.402.402 0 0 0-.406-.396H5.534A.402.402 0 0 0 5.128 9l.001 4.1z"/>
    </symbol>
    <symbol id="icon-food" viewBox="0 0 25 32">
      <path stroke-linecap="round" stroke-linejoin="round" stroke-width="2.667" d="M22.815 20.444V2.666c-7.135 6.806-7.441 12.324-7.407 17.778h7.407zm0 0v8.889h-1.481v-4.444M6.519 4.148v25.185M2.074 4.148v4.444a4.444 4.444 0 0 0 7.588 3.143 4.444 4.444 0 0 0 1.302-3.143V4.148"/>
    </symbol>
    <symbol id="icon-gas_station" viewBox="0 0 30 32">
      <path d="m26.95 8.05.017-.017-6.2-6.2L19 3.6l3.517 3.517a4.153 4.153 0 0 0-2.366 5.478A4.167 4.167 0 0 0 24 15.167c.6 0 1.15-.133 1.667-.35v12.017a1.667 1.667 0 0 1-3.333 0v-7.5a3.333 3.333 0 0 0-3.333-3.333h-1.667V4.334a3.333 3.333 0 0 0-3.333-3.333h-10A3.333 3.333 0 0 0 .668 4.334v26.667h16.667v-12.5h2.5v8.333a4.167 4.167 0 1 0 8.333 0V11.001c0-1.15-.467-2.2-1.217-2.95zM14 18.5v9.167H4V16h10v2.5zm0-5.833H4V4.334h10v8.333zm10 0a1.667 1.667 0 1 1 0-3.334 1.667 1.667 0 0 1 0 3.334z"/>
    </symbol>
    <symbol id="icon-heart" viewBox="0 0 32 32">
      <path stroke-linecap="round" stroke-linejoin="round" stroke-width="3.067" d="M27.787 6.147a7.326 7.326 0 0 0-10.373 0L16.001 7.56l-1.413-1.413a7.333 7.333 0 0 0-10.374 0 7.333 7.333 0 0 0 0 10.374l11.787 11.787 11.787-11.787a7.345 7.345 0 0 0 2.15-5.187 7.33 7.33 0 0 0-2.15-5.187z"/>
    </symbol>
    <symbol id="icon-heart_red" viewBox="0 0 32 32">
      <path fill="#e44848" stroke="#e44848" stroke-linecap="round" stroke-linejoin="round" stroke-width="3.067" d="M27.787 6.147a7.326 7.326 0 0 0-10.373 0L16.001 7.56l-1.413-1.413a7.333 7.333 0 0 0-10.374 0 7.333 7.333 0 0 0 0 10.374l11.787 11.787 11.787-11.787a7.345 7.345 0 0 0 2.15-5.187 7.33 7.33 0 0 0-2.15-5.187z" style="fill:var(--color2, #e44848);stroke:var(--color2, #e44848)"/>
    </symbol>
    <symbol id="icon-people" viewBox="0 0 46 32">
      <path d="M12.952 27.619H6.666c-.381 0-.571-.19-.762-.381s-.381-.571-.191-.952c1.143-3.238 4-5.143 7.238-5.143 4 0 7.238-3.429 7.238-7.429s-3.238-7.81-7.238-7.81-7.238 3.429-7.238 7.619c0 1.905.762 3.809 1.905 5.143-2.476 1.333-4.381 3.429-5.524 6.286-.381 1.333-.19 3.048.762 4.381s2.286 2.095 3.81 2.095h6.286c1.143 0 1.905-.762 1.905-1.905s-.762-1.905-1.905-1.905zM9.524 13.524c0-2.095 1.524-3.619 3.429-3.619s3.429 1.714 3.429 3.619c0 2.095-1.524 3.619-3.429 3.619s-3.429-1.714-3.429-3.619z"/>
      <path d="M43.619 23.81c-1.333-3.619-4-6.286-7.048-7.81 1.714-1.524 2.666-3.81 2.666-6.476 0-4.952-3.809-8.952-8.381-8.952s-8.381 4-8.381 8.952c0 2.476.952 4.762 2.667 6.476-3.048 1.524-5.714 4.19-7.048 7.81-.952 1.714-.571 3.619.381 5.143s2.667 2.286 4.381 2.286h15.809c1.714 0 3.429-.952 4.381-2.286 1.143-1.524 1.333-3.429.571-5.143zM26.095 9.714c0-2.857 2.095-5.143 4.571-5.143s4.571 2.286 4.571 5.143-2.095 5.143-4.571 5.143c-2.476 0-4.571-2.476-4.571-5.143zm13.714 17.143c-.19.19-.571.762-1.143.762H22.857c-.762 0-1.143-.571-1.143-.762-.191-.19-.571-.952-.19-1.714 1.524-4 5.333-6.667 9.333-6.667s7.809 2.667 9.333 6.667c.19.762-.19 1.524-.381 1.714z"/>
    </symbol>
    <symbol id="icon-route" viewBox="0 0 32 32">
      <path d="M6.667 4a2.667 2.667 0 1 0 0 5.334 2.667 2.667 0 0 0 0-5.334zM1.333 6.667a5.333 5.333 0 1 1 10.666 0 5.333 5.333 0 0 1-10.666 0zM25.333 22.667a2.667 2.667 0 1 0 0 5.334 2.667 2.667 0 0 0 0-5.334zM20 25.333a5.333 5.333 0 1 1 10.667 0 5.333 5.333 0 0 1-10.667 0z"/>
      <path d="M13.333 6.667c0-.736.597-1.333 1.333-1.333h8.4c4.13 0 5.62 5.404 1.987 7.429L9.58 21.567a1.295 1.295 0 0 0 .686 2.434h7.067a1.333 1.333 0 0 1 0 2.666h-7.067c-4.13 0-5.619-5.404-1.987-7.429l15.473-8.804A1.295 1.295 0 0 0 23.066 8h-8.4a1.333 1.333 0 0 1-1.333-1.333z"/>
    </symbol>
    <symbol id="icon-shower" viewBox="0 0 32 32">
      <path stroke-linecap="round" stroke-linejoin="round" stroke-width="2.667" d="m1.778 1.778 4.444 4.444m12.445 0a8.798 8.798 0 0 0-12.382.062 8.798 8.798 0 0 0-.062 12.382m15.11-15.11L3.555 21.334m16 3.555v.018m-7.111-1.796v.018m5.334-5.351v.018m5.333-5.352v.018m-8.889 17.76v.018m10.667-10.684v.018m5.333-5.352v.018"/>
    </symbol>
    <symbol id="icon-transmission" viewBox="0 0 32 32">
      <path stroke-linecap="round" stroke-linejoin="round" stroke-width="2.4" d="M22.667 14.667h2a2 2 0 0 0 0-4h-2v6.667m0 5.333V28H24a2.668 2.668 0 0 0 0-5.334h-1.333zM4 6.667a2.668 2.668 0 1 0 5.336 0 2.668 2.668 0 0 0-5.336 0z"/>
      <path stroke-linecap="round" stroke-linejoin="round" stroke-width="2.4" d="M6.667 9.333v4a1.335 1.335 0 0 0 1.334 1.334h4m-.001 0V24a1.33 1.33 0 0 0 1.334 1.333h4M12 14.667h5.333"/>
    </symbol>
    <symbol id="icon-tv" viewBox="0 0 28 32">
      <path stroke-linecap="round" stroke-linejoin="round" stroke-width="1.92" d="M22.4 26.667H5.333A4.258 4.258 0 0 1 1.066 22.4V11.733a4.258 4.258 0 0 1 4.267-4.267H22.4a4.258 4.258 0 0 1 4.267 4.267V22.4a4.258 4.258 0 0 1-4.267 4.267zM9.6 30.933h8.533M13.867 7.467l6.4-6.4M13.867 7.467l-6.4-6.4"/>
    </symbol>
    <symbol id="icon-windy" viewBox="0 0 40 32">
      <path d="M19.38 0c-1.876 0-3.695.641-5.146 1.812s-2.446 2.801-2.814 4.613l-.145.719a1.208 1.208 0 0 0 .164.947 1.25 1.25 0 0 0 1.304.54 1.238 1.238 0 0 0 .98-1.006l.148-.716c.277-1.343 1.051-2.537 2.171-3.351a5.685 5.685 0 0 1 7.498.733 5.483 5.483 0 0 1 1.459 3.706c0 1.469-.593 2.878-1.647 3.917s-2.486 1.623-3.978 1.624H1.249c-.332 0-.649.13-.884.36a1.217 1.217 0 0 0 0 1.74c.234.231.552.36.884.36h18.125c2.12-.051 4.136-.916 5.617-2.41s2.311-3.499 2.311-5.587-.828-4.094-2.308-5.589a8.191 8.191 0 0 0-5.616-2.414zm14.37 11.077c-1.658 0-3.247.648-4.419 1.802S27.5 15.598 27.5 17.23c0 .326.132.639.366.87s.552.36.884.36.649-.13.884-.36a1.22 1.22 0 0 0 .366-.87c0-.73.22-1.444.632-2.051s.998-1.08 1.683-1.36c.685-.279 1.439-.353 2.167-.21s1.396.494 1.92 1.011a3.65 3.65 0 0 1 .813 4.024 3.709 3.709 0 0 1-1.381 1.657 3.79 3.79 0 0 1-2.083.622h-32.5c-.332 0-.649.13-.884.361a1.22 1.22 0 0 0 0 1.74c.234.23.552.36.884.36h24.375c.829.002 1.623.327 2.208.906s.913 1.361.911 2.177c-.002.816-.333 1.598-.92 2.174s-1.383.898-2.212.897c-.746.001-1.469-.259-2.04-.733s-.952-1.132-1.078-1.856l-.012-.074a1.235 1.235 0 0 0-.947-1.031 1.26 1.26 0 0 0-1.319.497 1.216 1.216 0 0 0-.199.939l.013.074c.222 1.299.905 2.479 1.927 3.33s2.317 1.317 3.655 1.317c1.493.001 2.926-.582 3.983-1.621s1.652-2.447 1.655-3.918c0-1.14-.35-2.198-.947-3.077h3.447c1.658 0 3.247-.648 4.419-1.802s1.831-2.719 1.831-4.351-.658-3.197-1.831-4.351a6.3 6.3 0 0 0-4.419-1.802z"/>
    </symbol>
  <symbol id="icon-location" viewBox="0 0 16 16">
    <path d="M14 6.66667C14 11.3333 8 15.3333 8 15.3333C8 15.3333 2 11.3333 2 6.66667C2 5.07537 2.63214 3.54925 3.75736 2.42403C4.88258 1.29881 6.4087 0.666672 8 0.666672C9.5913 0.666672 11.1174 1.29881 12.2426 2.42403C13.3679 3.54925 14 5.07537 14 6.66667Z" stroke="#101828" stroke-width="1.3" stroke-linecap="round" stroke-linejoin="round" />
    <path d="M8 8.66667C9.10457 8.66667 10 7.77124 10 6.66667C10 5.5621 9.10457 4.66667 8 4.66667C6.89543 4.66667 6 5.5621 6 6.66667C6 7.77124 6.89543 8.66667 8 8.66667Z" stroke="#101828" stroke-width="1.3" stroke-linecap="round" stroke-linejoin="round" />
  </symbol>
  
    <symbol id="icon-line" viewBox="0 0 5760 32">
      <path stroke-width="16" d="M0 16h5760"/>
    </symbol>

    <symbol id="icon-close" width="24" height="24" viewBox="0 0 18 18" fill="none">
<path d="m13.5 4.5-9 9" stroke-width="1.9" stroke-linecap="round" stroke-linejoin="round"/>
<path d="m4.5 4.5 9 9"  stroke-width="1.9" stroke-linecap="round" stroke-linejoin="round"/>
</symbol>

<symbol id="icon-starOLD" viewBox="0 0 24 24">
    <path d="M12 17.27L18.18 21l-1.64-7.03L22 9.24l-7.19-.61L12 2 9.19 8.63 2 9.24l5.46 4.73L5.82 21z"/>
  </symbol>

   <symbol id="icon-star" viewBox="0 0 32 32">
      <path fill="#ffc531" stroke="#ffc531" stroke-width="2.4" d="M12.4 9.394 16 2.572l3.6 6.822a2.2 2.2 0 0 0 1.571 1.141l7.601 1.315-5.376 5.532a2.2 2.2 0 0 0-.6 1.846l1.098 7.635-6.922-3.404a2.199 2.199 0 0 0-1.941 0l-6.922 3.404 1.098-7.635a2.2 2.2 0 0 0-.6-1.846L3.231 11.85l7.601-1.315a2.202 2.202 0 0 0 1.571-1.141zm16.635 2.185zM7.767 27.031z" style="fill:var(--color1, #ffc531);stroke:var(--color1, #ffc531)"/>
    </symbol>

     <!-- <symbol id="icon-close" viewBox="0 0 32 32">
      <path d="M31.708 25.708 22 16l9.708-9.708a1 1 0 0 0 0-1.414L27.122.292a1 1 0 0 0-1.414-.001L16 9.999 6.292.291a.998.998 0 0 0-1.414.001L.292 4.878a1 1 0 0 0 0 1.414L10 16 .292 25.708a.999.999 0 0 0 0 1.414l4.586 4.586a1 1 0 0 0 1.414 0L16 22l9.708 9.708a1 1 0 0 0 1.414 0l4.586-4.586a.999.999 0 0 0 0-1.414z"/>
    </symbol> -->
  </defs>
</svg>
